<svg width="172" height="64" viewBox="0 0 172 64" fill="none" xmlns="http://www.w3.org/2000/svg">
    <rect x="2.5" y="4.5" width="52" height="57" rx="2.5" stroke="#008BD2" stroke-width="5"/>
    <path d="M36.2021 36.0688L39.8716 16.0078H47.5181L40.7285 48H32.7305L28.4458 29.7627L24.249 48H16.2729L9.46143 16.0078H17.1299L20.7993 36.0688L25.1938 16.0078H31.7417L36.2021 36.0688Z" fill="black"/>
    <path d="M90.1797 26.3945L93.4414 8.5625H100.238L94.2031 37H87.0938L83.2852 20.7891L79.5547 37H72.4648L66.4102 8.5625H73.2266L76.4883 26.3945L80.3945 8.5625H86.2148L90.1797 26.3945ZM120.551 24.9492H109.77V31.7266H122.504V37H102.914V8.5625H122.543V13.8555H109.77V19.8516H120.551V24.9492ZM142.934 24.9492H132.152V31.7266H144.887V37H125.297V8.5625H144.926V13.8555H132.152V19.8516H142.934V24.9492ZM157.348 26.4141L154.535 29.5V37H147.68V8.5625H154.535V21.1016L156.918 17.4883L163.051 8.5625H171.527L161.918 21.1406L171.527 37H163.402L157.348 26.4141Z" fill="#008BD2"/>
    <path d="M80.9062 57H79.9453L73.4062 47.2656V57H72.4375V45.625H73.4062L79.9531 55.3672V45.625H80.9062V57ZM90.0781 51.5469H84.7578V56.1875H90.875V57H83.7969V45.625H90.8359V46.4453H84.7578V50.7344H90.0781V51.5469ZM95.0078 53.9297L95.3594 55.6953L95.7891 54.0078L98.2578 45.625H99.125L101.562 54.0078L101.984 55.7109L102.359 53.9297L104.414 45.625H105.398L102.484 57H101.562L98.9844 48.1016L98.6953 46.9766L98.4141 48.1016L95.7734 57H94.8516L91.9453 45.625H92.9297L95.0078 53.9297ZM113.688 54.2031C113.688 53.5729 113.466 53.0755 113.023 52.7109C112.581 52.3411 111.771 51.9922 110.594 51.6641C109.417 51.3307 108.557 50.9688 108.016 50.5781C107.245 50.026 106.859 49.3021 106.859 48.4062C106.859 47.5365 107.216 46.8307 107.93 46.2891C108.648 45.7422 109.565 45.4688 110.68 45.4688C111.435 45.4688 112.109 45.6146 112.703 45.9062C113.302 46.1979 113.766 46.6042 114.094 47.125C114.422 47.6458 114.586 48.2266 114.586 48.8672H113.617C113.617 48.0911 113.352 47.4688 112.82 47C112.289 46.526 111.576 46.2891 110.68 46.2891C109.81 46.2891 109.117 46.4844 108.602 46.875C108.086 47.2604 107.828 47.7656 107.828 48.3906C107.828 48.9688 108.06 49.4401 108.523 49.8047C108.987 50.1693 109.729 50.4922 110.75 50.7734C111.771 51.0495 112.544 51.3385 113.07 51.6406C113.596 51.9375 113.992 52.2943 114.258 52.7109C114.523 53.1276 114.656 53.6198 114.656 54.1875C114.656 55.0833 114.297 55.8021 113.578 56.3438C112.865 56.8854 111.922 57.1562 110.75 57.1562C109.948 57.1562 109.211 57.013 108.539 56.7266C107.872 56.4401 107.365 56.0391 107.016 55.5234C106.672 55.0078 106.5 54.4167 106.5 53.75H107.461C107.461 54.5521 107.76 55.1849 108.359 55.6484C108.958 56.112 109.755 56.3438 110.75 56.3438C111.635 56.3438 112.346 56.1484 112.883 55.7578C113.419 55.3672 113.688 54.849 113.688 54.2031ZM123.492 57H116.367V56.2812L120.266 51.8594C120.911 51.1146 121.359 50.5 121.609 50.0156C121.859 49.5312 121.984 49.0599 121.984 48.6016C121.984 47.8828 121.773 47.3151 121.352 46.8984C120.93 46.4766 120.349 46.2656 119.609 46.2656C118.844 46.2656 118.224 46.5104 117.75 47C117.281 47.4896 117.047 48.125 117.047 48.9062H116.117C116.117 48.2656 116.26 47.6823 116.547 47.1562C116.839 46.6302 117.25 46.2188 117.781 45.9219C118.318 45.6198 118.927 45.4688 119.609 45.4688C120.651 45.4688 121.464 45.7422 122.047 46.2891C122.635 46.8359 122.93 47.5807 122.93 48.5234C122.93 49.0547 122.763 49.6354 122.43 50.2656C122.102 50.8958 121.521 51.6823 120.688 52.625L117.516 56.2109H123.492V57ZM130.984 53.3359H132.758V54.125H130.984V57H130.047V54.125H124.695V53.5938L129.961 45.625H130.984V53.3359ZM125.844 53.3359H130.047V46.8359L129.633 47.5547L125.844 53.3359Z" fill="black"/>
</svg>
